<svg id="Capa_1" data-name="Capa 1" xmlns="http://www.w3.org/2000/svg" viewBox="0 0 161.88 125.89">
  <defs>
    <style>
      .cls-1 {
        fill: #191d1f;
      }

      .cls-2 {
        fill: #f9fafa;
      }

      .cls-3 {
        fill: #f6b203;
      }
    </style>
  </defs>
  <title>logoargprograma</title>
  <rect class="cls-1" width="161.88" height="125.89" rx="10.58"/>
  <path class="cls-2" d="M209.24,152.93a6.23,6.23,0,0,1-1.8,4.75c-6.52,7.8-13,15.64-19.56,23.4-2.66,3.14-6.43,3.49-9.19,1.1s-3.06-6-.4-9.25c4.92-6.07,9.86-12.12,14.92-18.07,1.33-1.55,1.26-2.48,0-4-4.85-5.63-9.57-11.39-14.31-17.12-3.19-3.86-3.19-7.66,0-10.1,2.94-2.27,6.84-1.45,9.71,2,5.93,7.17,11.89,14.3,17.79,21.5C207.71,148.86,209.46,150.44,209.24,152.93Z" transform="translate(-145.74 -93.52)"/>
  <path class="cls-3" d="M210.56,198c-3.76-1.2-4.36-4.14-3.74-7.41s2.9-4.76,6.16-4.76q20.43,0,40.88,0a6.09,6.09,0,0,1,6.44,5.06c.7,3.18-.48,5.81-3.84,7Z" transform="translate(-145.74 -93.52)"/>
</svg>
